<?xml version="1.0" encoding="utf-8"?>
<!-- Generator: Adobe Illustrator 28.0.0, SVG Export Plug-In . SVG Version: 6.00 Build 0)  -->
<svg version="1.1" id="_图层_2" xmlns="http://www.w3.org/2000/svg" xmlns:xlink="http://www.w3.org/1999/xlink" x="0px" y="0px"
	 viewBox="0 0 1561.1 1347.6" style="enable-background:new 0 0 1561.1 1347.6;" xml:space="preserve">
<style type="text/css">
	.st0{fill:#838383;}
	.st1{fill:#FBFBFA;}
</style>
<g>
	<path class="st0" d="M197.5,1156c-5.8,0.3-11.7,1-17.4-1.3c-8.4-3.4-10.5-14.2-4-20.4c4.9-4.7,11.4-6.8,17.1-10.3
		c15.6-9.8,28.6-22.2,38.4-37.8c10.7-16.9,16.5-35.3,20.4-54.9c4.8-23.8,14.1-46.1,29.4-65c15.9-19.5,37.2-30.9,62-35.6
		c9.7-1.8,19.4-3.1,29.3-3.2c4.7-0.1,7.5-3.1,10.2-6.5c25.2-32.9,50.6-65.6,76.9-97.7c9.9-12,21.3-22.5,32-33.6
		c14.6-15.2,29.3-30.4,44.1-45.5c13.5-13.8,27.2-27.5,40.7-41.2c24.3-24.7,48.6-49.4,72.8-74.1c4-4,8.1-8,12.2-11.8
		c2.9-2.7,3.8-5.9,4-9.8c0.2-5.8-0.9-11.6,0.9-17.4c3.2-9.8,11-16.1,17.6-23.2c6.6-7.5,13.6-14.7,20.5-21.8c3-3.1,4.7-6.7,4.7-10.7
		c-0.1-7.4,3.2-13.1,8.3-18.1c34.5-33.8,67.3-69.3,101.4-103.4c28.1-28.2,56-56.5,83.8-85c32.8-33.4,65.4-66.9,98.2-100.2
		c11.3-11.5,22.9-22.8,34.5-33.9c16.8-16,18.2-42.8,2.7-57.8c-9.3-9-21.1-10.5-33.1-8.8c-10.5,1.5-18.3-1.8-23.9-10.4
		c-6.2-9.5-3.2-27.6,11.3-34c19.6-8.7,39-8.3,58.9-1.7c23.5,7.9,41.8,23,58.1,41.1c5.7,6.3,10.8,13.1,16.4,19.5
		c5,5.8,6,5.6,11.4,0.3c11.7-11.5,23.6-23,35.4-34.5c5.9-5.7,5.9-5.9,1.7-12.9c-4.7-7.7-9-15.5-9.3-24.9
		c-0.7-21.7,28.8-49.3,58-33.1c14.2,7.8,25.8,18.8,37.2,30.1c9.5,9.3,18.7,19,27.4,29.1c11.5,13.3,16.1,29.1,10.5,46
		c-6,18.2-23.2,29.9-44.7,24.5c-6-1.5-11.6-4.1-16.8-7.5c-3-1.9-4.9-1.2-7.3,1.2c-13.9,14.3-28,28.5-42.2,42.6
		c-3.4,3.4-3.2,5.9-0.3,9.3c6.3,7.6,9.5,16,6.2,25.9c-1.1,3.3,0.2,5.7,2.2,8.1c9.5,10.8,19.6,20.8,29.9,30.8
		c4.8,4.5,8.6,9.7,12.1,15.3c6.9,11.2,4.1,26.5-6.4,35.2c-8.6,7.2-24.9,7.7-33.4,0c-2.4-2.1-5-4-7.2-6.2c-2.2-2.4-3.8-1.8-5.7,0.2
		c-7,7.3-13.9,14.8-21.6,21.5c-2.1,2-3.4,4.6-3,7.1c2.8,17.8-6.5,30-18.5,41.3c-21.9,20.7-42.5,42.6-63.5,64.2
		c-25.5,26.1-51.2,51.9-76.3,78.3c-31.3,32.8-63.4,64.7-95.7,96.5c-13.9,13.7-26.7,28.5-41.4,41.2c-4.2,3.6-8.6,5.8-14.2,4.6
		c-8.5-1.9-14.4,1.9-19.5,8c-9.1,10.9-19.9,20.1-29.4,30.6c-9.7,10.9-22.8,14.5-36.2,17.5c-7.1,1.6-14.3,3.2-21.2,5.9
		c-9.8,3.9-16.4,11.8-23.5,19c-19.7,20-39.7,39.8-59.4,59.9c-11.9,12.1-24.1,24-35.2,36.7c-11.2,12.8-25.6,18.6-41.7,21.6
		c-8,1.4-16.1,3.1-24.1,4.5c-3.4,0.6-6.2,2.3-8.5,4.8c-22.3,23.7-48.2,43.5-72.6,64.8c-10.5,9.1-21.6,17.3-31,27.5
		c-3.9,4.2-7.2,9.2-10.7,13.8c-1.3,1.7-1,3.8-0.9,5.9c0.5,32.4-10.6,61.1-28.3,87.5c-11.4,16.9-27.3,29.4-44.5,40.2
		c-29.2,18.4-61.5,27.5-95.3,32.4c-14.5,2.1-28.9,1.6-43.3,1.5C216.2,1157.8,206.8,1156.7,197.5,1156L197.5,1156L197.5,1156z
		 M306.7,1098.8c-0.2-0.2-0.4-0.3-0.5-0.5c7.3-5.8,14.5-11.7,21.8-17.4c34.2-26.6,55.6-61.3,65.8-103.2c0.9-3.6,0.8-6.7-2.8-9.1
		c-4.2-2.9-7-7.2-9.4-11.5c-2.7-4.8-6.6-6.2-11.6-6.1c-42-0.2-74.1,22.9-87.8,62.5c-5.8,16.5-7.5,34.1-13.3,50.6
		c-7.9,22.6-19,43.2-35.8,60.3c-2.7,2.7-5.4,5.4-8.2,8.1c1.2,0.1,2.6,0.3,4.1,0.3c28.8,0.2,57.2-1.7,84.5-12.1
		c25.1-9.6,48.9-21.3,66.9-42c20.1-23,30.7-49.9,32.1-80.4c0.2-3.8,0.3-7.8-1.6-11.5c-1.8,1.2-1.6,2.9-2,4.2
		c-4.9,19-12.6,36.8-23.4,53.2C366.7,1072.9,341.5,1092.8,306.7,1098.8L306.7,1098.8L306.7,1098.8z M1011.8,105.7
		c10.7,1.2,21.6,2.2,31.1,8.1c31.3,19.5,32.7,61.6,13.2,85.3c-5.3,6.3-11.1,12-16.7,17.9c-32.4,34-65.6,67.1-98.7,100.6
		c-15.4,15.7-30.7,31.5-46.1,47.2c-20.7,21-41.6,41.8-62.3,62.8c-18.3,18.7-36.5,37.4-54.8,56.2c-15.2,15.6-30.4,31.2-45.8,46.6
		c-2.4,2.3-1.8,3.8,0.1,5.7c21.3,21.4,42.5,42.8,63.7,64.2c16.8,17.1,33.6,34.2,50.2,51.5c4.5,4.6,5.9,4.9,10.4,0.4
		c14.3-14.5,28.5-29.3,43.1-43.5c15-14.6,29.5-29.6,44.3-44.3c12.1-12.1,23.9-24.4,35.6-36.7c18.3-19.1,37-37.7,54.9-57.2
		c3.2-3.5,3.1-5.9-0.1-9.2c-11.8-12.3-23.3-24.7-35.5-36.6c-2.1-1.9-3-1.4-4.7,0.3c-24.5,24.8-49.1,49.4-73.5,74.2
		c-28.3,28.7-56.5,57.6-84.6,86.4c-1.8,1.9-3.9,3.7-6.4,4.7c-2.3,0.8-4.7,1.2-6.5-0.8s-1.7-4.1-0.6-6.5c1.6-3.4,4.1-6,6.7-8.7
		c20.6-21.1,41.2-42.1,62-63.1c42.5-43.1,85.1-86.4,127.7-129.5c18.1-18.4,36.3-36.8,54.4-55.1c2.2-2.2,4.4-4,7.7-4
		c3.9,0.1,5.9,2.3,5,6.1c-0.7,3.2-2.6,5.7-4.9,8c-16.3,16.4-32.6,32.9-49,49.3c-7.5,7.6-15.2,15-22.6,22.6c-2.3,2.3-4.3,4.5-1,8
		c11.1,11.1,21.8,22.5,32.6,33.8c6.5,6.8,6.7,6.7,12.9,0.3c0.8-0.7,1.5-1.4,2.1-2.1c25.7-25.8,51.3-51.4,76.8-77.3
		c9.9-10.1,9.6-11.2,0.4-22.3c-8.7-10.5-18.5-20.1-26.3-31.3c-5.6-7.9-5.3-14.7,1.3-21.8c9.5-10.2,19.5-19.9,29.4-29.8
		c11-11.2,21.9-22.3,32.8-33.6c3.1-3.2,3.6-6.5,0.5-10.1c-3.4-4-6.5-8.5-10-12.5c-20-23.2-40.4-46.1-60.3-69.4
		c-14.1-16.4-30.8-29.4-50.4-38.5c-16.3-7.7-33.1-7.9-50-1.5c-1.4,0.6-3.9,0.7-3.5,2.9c0.3,2.5,2.9,1.6,4.6,1.8
		C1004.8,105.2,1008.3,105.4,1011.8,105.7L1011.8,105.7L1011.8,105.7z M726,676.6c0.2-1.6-0.7-2.4-1.6-3.1
		c-14.5-14.3-29.3-28.6-43.3-43.7c-1.7-1.8-2.9-2.1-4.8,0c-21.2,23.9-44.5,45.8-66.8,68.8c-28,29-56.2,57.8-84.3,86.7
		c-13.9,14.4-27.7,28.8-41.6,43.1c-2.8,2.8-3.1,5-0.5,8.5c11.2,14.5,25.2,26,38.3,38.7c3.6,3.5,6.3,3.2,9.9-0.4
		c39.6-40.6,79.4-81.2,119.3-121.6c24-24.3,47.3-49.2,72-72.9C724,679.4,725.5,678.3,726,676.6L726,676.6L726,676.6z M425.6,968.3
		c0.6-0.5,1.5-1,2.2-1.6c2.1-1.9,4.2-3.8,6.3-5.7c24.8-21.3,49.7-42.7,74.7-63.9c3.3-2.8,3.7-4.4,0.2-7.5
		c-13.6-12.1-26.9-24.3-38.2-38.7c-2.6-3.2-3.8-3.8-6.6-0.1c-10.7,14.2-21.8,28-32.8,42.1c-11.4,14.6-23.2,29.2-34.1,44.2
		c-1.3,1.8-2.1,3.2-0.6,5.3c7.1,9.3,14.6,18.2,25,24C422.9,967.1,424.1,967.6,425.6,968.3L425.6,968.3L425.6,968.3z M695,613.9
		c1.3-7.6,3.8-14.6,8.6-20.6c7.1-9,14.3-17.9,22.9-25.7c1.7-1.5,4-2.9,3-5.8c-1.7-4.5-8.1-5.9-11.5-2.4
		c-9.3,9.8-18.4,19.7-27.6,29.5c-7.7,8.2-8.1,10.8-1.4,21.1c1.1,1.7,2.5,3.2,3.9,4.6c16.9,16.8,33.7,33.6,50.5,50.4
		c7.4,7.3,16.5,8.2,24.5,1.4c10.9-9.4,19.7-20.8,29.7-30.9c2.5-2.5,1.5-4.7-1.1-6c-2.5-1.3-3.8-6.9-8.3-2.3
		c-9,9.4-19.1,17.6-29.4,25.6c-2.2,1.7-4.5,3.4-7.2,4.3c-0.8,0.3-1.9,1.1-2.8,0.2s-0.1-1.9,0.3-2.8c1.8-4.9,5.1-8.9,8.4-12.8
		c6.6-8,13.3-15.8,20.8-22.9c2.7-2.5,3.3-4.9-0.1-7.7c-3.7-3.1-7.1-6.6-10.2-10.2c-2.8-3.2-4.9-3-7.7-0.2
		c-7.3,7.3-14.7,14.5-22.2,21.6c-4.9,4.8-10.5,8.7-16.7,11.8c-0.7,0.4-1.7,1.5-2.5,0.3c-0.3-0.4,0.2-1.5,0.5-2.3
		c2.2-5.6,5.7-10.1,9.6-14.5c7.4-8.3,15.2-16.4,23.9-23.4c3.3-2.7,3.7-5.2,0.5-8.2c-3.7-3.6-7.2-7.4-10.5-11.3c-3-3.4-6-3.1-9.1-0.4
		c-1.5,1.3-2.9,2.8-4.3,4.2C718.4,590.8,705.6,601.1,695,613.9L695,613.9L695,613.9z M824.7,659.5c-0.2-0.8-0.3-1.5-0.8-2.1
		c-3.1-3.3-6.2-6.5-9.3-9.7c-1.7-1.7-2.6,0-3.5,1.2c-7.8,10-17.5,18.3-25.7,27.9c-10.9,12.7-24.3,18.1-40.7,16.2
		c-3.8-0.5-6.9,0.6-9.5,3.3c-5.9,5.9-11.9,11.6-17.8,17.6c-24.9,25.5-49.8,51.2-74.7,76.8c-12.7,13.1-25.7,26.2-38.5,39.2
		c-6.9,6.9-14,13.8-21,20.7c-0.8,0.7-1.9,1.6-1.7,2.9c0.1,0.9,1,0.8,1.6,0.6c7.4-1.2,14.9-2.2,20.5-7.9
		c15.1-15.3,30.3-30.5,45.3-45.8c21.8-22.2,43.6-44.5,65.3-66.8c9.5-9.8,20.6-16.6,34.1-19.4c7.5-1.5,14.9-3.6,22.3-5.3
		c6.7-1.5,12.7-4.8,17.3-9.4c11.9-11.9,23-24.5,34.5-36.8C823.2,661.7,823.9,660.5,824.7,659.5L824.7,659.5L824.7,659.5z
		 M1279.2,129.8c1.1-10.9-3.5-19.8-10.6-27c-15.5-15.7-30.3-32.3-48.4-45.3c-6.2-4.4-12.9-5.9-20.3-4.4c-1.2,0.2-3-0.2-3.3,1.5
		c-0.2,1.3,1.4,1.7,2.2,2.5c3.8,3.1,7.3,6.3,10.4,10.1c2.4,3,3.2,6.6,0.2,9.5c-2.9,2.8-5.9,0.9-8.4-1.2c-3.9-3.1-7.8-6.3-11.7-9.3
		c-0.9-0.7-1.7-2.2-2.8-1.3c-0.7,0.5-0.9,2.1-0.8,3.2c0.2,8,3.3,15.1,8.8,20.7c15.2,15.4,30.5,30.6,45.7,46
		c6.2,6.2,13.1,11.2,21.9,13.2c2.1,0.4,4.9,1.7,6.1,0c1.3-1.8-1.2-3.8-2.3-5.5c-0.9-1.4-2-2.6-3-3.9c-8.9-10.1-17.7-20.3-26.6-30.4
		c-2.6-3-3.7-6.6-0.6-9.4c2.9-2.7,6.3-0.8,8.9,1.5c0.4,0.3,0.8,0.7,1.1,1c9.2,10.8,19.8,20.1,28.7,31.3c1,1.3,2,3.5,3.5,3.3
		c2-0.6,1.1-3.1,1.4-4.8C1279.1,130.4,1279.1,130.1,1279.2,129.8L1279.2,129.8L1279.2,129.8z M1220.5,140.4c0-1.5-0.9-2.1-1.6-2.7
		c-7.4-7.3-15-14.6-22.3-22.2c-2.3-2.5-3.6-1.8-5.5,0.2c-14,14.4-28.1,28.8-42.2,43.1c-2.5,2.4-2.5,4.6-0.5,7.4
		c5.8,8.3,12.9,15.6,19.5,23.3c1.2,1.5,2.1,1.6,3.6,0.1c15.6-15.6,31.5-31.2,47.1-46.7C1219.4,142.1,1220,141.1,1220.5,140.4
		L1220.5,140.4L1220.5,140.4z M1125.4,308.2c-0.2,1.9,0.9,3.4,1.8,4.9c3.9,6.6,10.2,11,14.7,17c2.5,3.3,3.9,2.7,6.4,0
		c9.1-9.3,17.5-19.1,27.2-27.8c2.6-2.2,2.2-4,0-6.1c-5.6-5.7-11.2-11.4-16.6-17.2c-2.6-2.8-4.7-2.8-7.4,0
		c-7.8,8.2-15.8,16.1-23.7,24.3C1126.5,304.6,1125.4,306.1,1125.4,308.2L1125.4,308.2z M1221.8,305.7c-0.3-3.8-1.9-7.4-4.7-10.1
		c-10.9-10.5-20.5-22.3-31.1-33c-9.4-9.6-9.4-9.5-18.7-0.1c-2.5,2.4-2.9,3.9-0.1,6.6c9.6,9.2,18.8,18.7,28.2,28.1
		c4.3,4.3,8.5,8.8,12.9,13.1c2.3,2.2,5.1,3.6,8.2,2.1C1219.3,311.3,1221.6,309.3,1221.8,305.7L1221.8,305.7L1221.8,305.7z"/>
	<path class="st1" d="M1011.8,105.7c-3.5-0.2-7-0.4-10.5-0.7c-1.7-0.2-4.2,0.7-4.6-1.8c-0.4-2.1,2.1-2.3,3.5-2.9
		c16.9-6.4,33.6-6.1,50,1.5c19.6,9.1,36.2,22.1,50.4,38.5c20,23.3,40.3,46.2,60.3,69.4c3.5,4.1,6.5,8.5,10,12.5
		c3.1,3.6,2.6,6.9-0.5,10.1c-11,11.2-21.9,22.4-32.8,33.6c-9.8,9.9-19.8,19.7-29.4,29.8c-6.5,7.1-6.8,13.9-1.3,21.8
		c7.8,11.2,17.7,20.8,26.3,31.3c9.2,11.2,9.6,12.2-0.4,22.3c-25.5,25.9-51.1,51.6-76.8,77.3c-0.8,0.7-1.5,1.4-2.1,2.1
		c-6.4,6.4-6.4,6.5-12.9-0.3c-10.9-11.2-21.7-22.6-32.6-33.8c-3.4-3.4-1.3-5.6,1-8c7.5-7.6,15.2-15,22.6-22.6
		c16.3-16.4,32.6-32.9,49-49.3c2.3-2.2,4.2-4.8,4.9-8c0.9-3.8-1.1-6-5-6.1c-3.3,0-5.6,1.7-7.7,4c-18.1,18.4-36.3,36.8-54.4,55.1
		c-42.6,43.1-85.1,86.3-127.7,129.5c-20.7,21-41.3,42.1-62,63.1c-2.6,2.6-5.1,5.3-6.7,8.7c-1.2,2.3-1.2,4.6,0.6,6.5
		c1.9,1.9,4.2,1.6,6.5,0.8c2.6-1,4.5-2.8,6.4-4.7c28.2-28.8,56.4-57.7,84.6-86.4c24.4-24.9,49.1-49.4,73.5-74.2
		c1.7-1.8,2.8-2.2,4.7-0.3c12.2,11.8,23.8,24.2,35.5,36.6c3.2,3.2,3.2,5.7,0.1,9.2c-17.9,19.5-36.5,38.1-54.9,57.2
		c-11.8,12.3-23.7,24.6-35.6,36.7c-14.8,14.8-29.4,29.8-44.3,44.3c-14.6,14.2-28.8,29-43.1,43.5c-4.5,4.6-5.9,4.3-10.4-0.4
		c-16.6-17.3-33.5-34.4-50.2-51.5c-21.2-21.4-42.4-42.9-63.7-64.2c-1.9-1.9-2.5-3.4-0.1-5.7c15.3-15.5,30.5-31,45.8-46.6
		c18.2-18.7,36.4-37.6,54.8-56.2c20.7-21,41.6-41.8,62.3-62.8c15.4-15.7,30.7-31.5,46.1-47.2c33-33.5,66.3-66.5,98.7-100.6
		c5.6-5.9,11.4-11.5,16.7-17.9c19.5-23.7,18.1-65.8-13.2-85.3C1033.3,107.9,1022.4,106.8,1011.8,105.7L1011.8,105.7L1011.8,105.7z"
		/>
	<path class="st1" d="M726,676.6c-0.4,1.7-2,2.8-3.3,4.1c-24.6,23.7-48,48.6-72,72.9c-39.9,40.4-79.6,80.9-119.3,121.6
		c-3.6,3.7-6.3,3.9-9.9,0.4c-13.1-12.6-27.1-24.1-38.3-38.7c-2.7-3.4-2.3-5.6,0.5-8.5c13.9-14.4,27.8-28.7,41.6-43.1
		c28.1-28.9,56.2-57.7,84.3-86.7c22.2-23,45.5-44.9,66.8-68.8c1.8-2.1,3.1-1.8,4.8,0c13.9,15.1,28.6,29.3,43.3,43.7
		C725.2,674.3,726.1,675.1,726,676.6L726,676.6L726,676.6z"/>
	<path class="st1" d="M306.8,1098.8c34.7-5.9,60-25.9,78.8-54.5c10.7-16.4,18.3-34.2,23.4-53.2c0.4-1.4,0.2-3,2-4.2
		c1.9,3.7,1.9,7.7,1.6,11.5c-1.4,30.5-12,57.4-32.1,80.4c-18.1,20.7-41.8,32.5-66.9,42c-27.3,10.3-55.7,12.3-84.5,12.1
		c-1.5,0-2.9-0.2-4.1-0.3c2.7-2.7,5.5-5.4,8.2-8.1c16.9-17.2,27.9-37.7,35.8-60.3c5.8-16.5,7.6-34.1,13.3-50.6
		c13.7-39.6,45.9-62.8,87.8-62.5c5,0,8.9,1.3,11.6,6.1c2.4,4.4,5.2,8.7,9.4,11.5c3.5,2.5,3.7,5.5,2.8,9.1
		c-10.1,41.9-31.5,76.6-65.8,103.2c-7.3,5.7-14.5,11.6-21.8,17.4c-0.2,0.3-0.4,0.6-0.7,0.9L306.8,1098.8L306.8,1098.8z"/>
	<path class="st1" d="M425.6,968.3c-1.5-0.7-2.7-1.2-3.9-1.9c-10.4-5.8-17.9-14.7-25-24c-1.6-2-0.8-3.4,0.6-5.3
		c10.9-15.2,22.6-29.6,34.1-44.2c11-14.1,22-27.9,32.8-42.1c2.8-3.6,4-3.1,6.6,0.1c11.3,14.3,24.6,26.6,38.2,38.7
		c3.5,3.2,3.1,4.6-0.2,7.5c-24.9,21.2-49.8,42.6-74.7,63.9c-2.1,1.9-4.2,3.8-6.3,5.7C427.1,967.3,426.2,967.8,425.6,968.3
		L425.6,968.3L425.6,968.3z"/>
	<path class="st1" d="M695,613.9c10.6-12.8,23.5-23.1,34.7-35.2c1.4-1.4,2.7-2.9,4.3-4.2c3.1-2.7,6.1-3,9.1,0.4
		c3.4,3.8,6.9,7.7,10.5,11.3c3.2,3.1,2.8,5.6-0.5,8.2c-8.7,7-16.5,15.1-23.9,23.4c-3.9,4.3-7.4,8.9-9.6,14.5
		c-0.3,0.8-0.7,1.9-0.5,2.3c0.8,1.2,1.8,0,2.5-0.3c6.1-3.1,11.7-7,16.7-11.8c7.5-7.1,14.9-14.3,22.2-21.6c2.9-2.9,5-3,7.7,0.2
		c3.2,3.6,6.5,7.2,10.2,10.2c3.4,2.8,2.7,5.2,0.1,7.7c-7.5,7.1-14.2,14.9-20.8,22.9c-3.3,4-6.6,8-8.4,12.8c-0.4,0.9-1.2,1.8-0.3,2.8
		c0.8,0.9,1.9,0,2.8-0.2c2.7-0.9,5-2.6,7.2-4.3c10.2-8,20.3-16.2,29.4-25.6c4.4-4.6,5.7,1,8.3,2.3c2.6,1.3,3.6,3.5,1.1,6
		c-10.1,10.1-18.8,21.5-29.7,30.9c-7.9,6.8-17.1,5.9-24.5-1.4c-16.9-16.8-33.7-33.6-50.5-50.4c-1.4-1.4-2.8-2.9-3.9-4.6
		c-6.8-10.3-6.3-12.9,1.4-21.1c9.2-9.9,18.4-19.8,27.6-29.5c3.4-3.5,9.8-2.1,11.5,2.4c1,2.8-1.3,4.2-3,5.8
		c-8.7,7.6-15.8,16.6-22.9,25.7C698.8,599.2,696.4,606.3,695,613.9L695,613.9L695,613.9z"/>
	<path class="st1" d="M824.7,659.5c-0.8,1-1.5,2.2-2.3,3.1c-11.4,12.3-22.6,24.9-34.5,36.8c-4.6,4.6-10.6,8-17.3,9.4
		c-7.4,1.7-14.8,3.8-22.3,5.3c-13.5,2.8-24.6,9.6-34.1,19.4c-21.7,22.2-43.5,44.6-65.3,66.8c-15.1,15.3-30.3,30.5-45.3,45.8
		c-5.7,5.7-13.2,6.6-20.5,7.9c-0.5,0.1-1.4,0.2-1.6-0.6c-0.2-1.3,0.9-2,1.7-2.9c7-6.9,14.1-13.8,21-20.7
		c12.9-13,25.8-26.1,38.5-39.2c24.9-25.5,49.8-51.2,74.7-76.8c5.8-5.9,11.8-11.7,17.8-17.6c2.7-2.6,5.7-3.7,9.5-3.3
		c16.5,2,29.9-3.6,40.7-16.2c8.2-9.6,17.9-17.9,25.7-27.9c0.9-1.1,1.8-2.9,3.5-1.2c3.2,3.1,6.3,6.5,9.3,9.7
		C824.4,657.8,824.5,658.6,824.7,659.5L824.7,659.5L824.7,659.5z"/>
	<path class="st1" d="M1279.2,129.8c0,0.3,0.1,0.7-0.1,1c-0.4,1.7,0.6,4.3-1.4,4.8c-1.5,0.4-2.5-2-3.5-3.3
		c-8.8-11.1-19.5-20.5-28.7-31.3c-0.3-0.3-0.7-0.8-1.1-1c-2.6-2.3-5.9-4.2-8.9-1.5c-3,2.8-1.9,6.4,0.6,9.4
		c8.9,10.1,17.7,20.3,26.6,30.4c1.1,1.3,2.2,2.6,3,3.9c1.1,1.8,3.7,3.7,2.3,5.5c-1.2,1.6-4,0.4-6.1,0c-8.8-1.9-15.8-6.9-21.9-13.2
		c-15.2-15.4-30.6-30.5-45.7-46c-5.5-5.6-8.5-12.6-8.8-20.7c0-1.1,0.1-2.7,0.8-3.2c1.2-0.9,2.1,0.6,2.8,1.3
		c3.9,3.1,7.8,6.3,11.7,9.3c2.6,2.1,5.6,4,8.4,1.2c2.9-2.9,2.2-6.6-0.2-9.5c-3-3.7-6.6-7-10.4-10.1c-0.9-0.7-2.4-1.2-2.2-2.5
		c0.3-1.7,2.2-1.3,3.3-1.5c7.4-1.5,14.1,0,20.3,4.4c18,13.1,32.8,29.7,48.4,45.3C1275.6,110,1280.2,118.9,1279.2,129.8L1279.2,129.8
		L1279.2,129.8z"/>
	<path class="st1" d="M1220.5,140.4c-0.5,0.7-1.1,1.7-2,2.5c-15.7,15.5-31.4,31.1-47.1,46.7c-1.4,1.4-2.3,1.3-3.6-0.1
		c-6.6-7.7-13.7-15-19.5-23.3c-2-2.8-1.9-4.9,0.5-7.4c14.1-14.3,28.2-28.7,42.2-43.1c1.9-2,3.2-2.6,5.5-0.2
		c7.3,7.5,14.8,14.8,22.3,22.2C1219.6,138.3,1220.6,138.9,1220.5,140.4L1220.5,140.4L1220.5,140.4z"/>
	<path class="st1" d="M1125.4,308.2c0-2.1,1-3.5,2.4-4.8c7.9-8.1,15.9-16.1,23.7-24.3c2.7-2.8,4.7-2.8,7.4,0
		c5.4,5.9,11,11.5,16.6,17.2c2.1,2.1,2.5,3.9,0,6.1c-9.7,8.5-18.1,18.5-27.2,27.8c-2.5,2.5-3.9,3.2-6.4,0
		c-4.5-5.9-10.7-10.4-14.7-17C1126.2,311.5,1125.1,310.1,1125.4,308.2L1125.4,308.2L1125.4,308.2z"/>
	<path class="st1" d="M1221.8,305.7c-0.4,3.6-2.5,5.6-5.3,6.8c-3.1,1.4-5.9,0.1-8.2-2.1c-4.4-4.3-8.6-8.8-12.9-13.1
		c-9.4-9.5-18.6-18.9-28.2-28.1c-2.8-2.7-2.5-4.2,0.1-6.6c9.4-9.4,9.4-9.5,18.7,0.1c10.6,10.8,20.2,22.6,31.1,33
		C1220,298.3,1221.5,301.9,1221.8,305.7L1221.8,305.7z"/>
	<path class="st0" d="M306.8,1098.8l-1.1,0.3c0.2-0.3,0.4-0.6,0.7-0.9C306.4,1098.5,306.6,1098.6,306.8,1098.8z"/>
</g>
</svg>
