<?xml version="1.0" encoding="utf-8"?>
<!-- Generator: Adobe Illustrator 28.0.0, SVG Export Plug-In . SVG Version: 6.00 Build 0)  -->
<svg version="1.1" id="_图层_2" xmlns="http://www.w3.org/2000/svg" xmlns:xlink="http://www.w3.org/1999/xlink" x="0px" y="0px"
	 viewBox="0 0 1561.1 1347.6" style="enable-background:new 0 0 1561.1 1347.6;" xml:space="preserve">
<style type="text/css">
	.st0{fill:#838383;}
	.st1{fill:#FBFBFA;}
</style>
<path class="st0" d="M237.9,1192.4c-5.8,0.7-11.6,1.8-17.4-0.1c-8.6-2.8-11.5-13.4-5.4-20.1c4.6-5,10.9-7.6,16.3-11.5
	c14.9-10.9,27-24.1,35.7-40.4c9.5-17.6,14-36.4,16.5-56.2c3.1-24.1,10.8-47,24.8-66.9c14.5-20.6,35-33.4,59.4-39.8
	c9.5-2.5,19.1-4.4,29-5.2c4.7-0.4,7.3-3.6,9.7-7.2c22.8-34.6,45.9-69,69.9-102.8c9-12.7,19.7-23.9,29.6-35.8
	c13.5-16.2,27.1-32.4,40.8-48.5c12.5-14.7,25.2-29.3,37.7-43.9c22.5-26.3,45-52.7,67.5-79c3.7-4.3,7.5-8.5,11.3-12.6
	c2.7-2.9,3.4-6.2,3.3-10.1c-0.2-5.8-1.7-11.5-0.3-17.4c2.5-10,9.9-16.8,15.9-24.4c6.1-7.9,12.5-15.6,18.9-23.2c2.8-3.3,4.2-7,3.9-11
	c-0.6-7.4,2.3-13.3,7-18.6c32.1-36.1,62.3-73.8,93.9-110.2c26.1-30.1,51.9-60.3,77.7-90.6c30.4-35.6,60.6-71.3,91-106.8
	c10.5-12.3,21.3-24.3,32.1-36.2c15.6-17.1,15.2-44-1.3-57.9c-9.9-8.3-21.8-9-33.6-6.5c-10.4,2.2-18.4-0.5-24.6-8.7
	c-6.8-9-5.1-27.3,8.9-34.7c18.9-10,38.3-11,58.6-5.8c24,6.2,43.3,20,60.8,36.9c6.1,5.9,11.7,12.3,17.7,18.3
	c5.4,5.4,6.4,5.2,11.4-0.5c10.9-12.3,21.9-24.6,32.9-36.9c5.5-6.1,5.5-6.3,0.8-13c-5.2-7.4-10.1-14.8-11-24.2
	c-2.2-21.6,25.3-51.2,55.5-37.1c14.7,6.8,27.1,17,39.2,27.4c10.1,8.6,20,17.6,29.4,27.1c12.4,12.5,18.1,27.9,13.7,45.2
	c-4.7,18.6-21.1,31.4-42.9,27.6c-6.1-1.1-11.9-3.3-17.3-6.3c-3.1-1.7-5-0.9-7.2,1.7c-12.9,15.2-25.9,30.4-39.1,45.4
	c-3.2,3.6-2.8,6.1,0.3,9.3c6.8,7.1,10.6,15.3,8,25.4c-0.9,3.4,0.6,5.7,2.8,7.9c10.2,10.1,21,19.4,32,28.6c5.1,4.2,9.3,9.1,13.1,14.4
	c7.7,10.7,5.9,26.2-3.9,35.6c-8.1,7.8-24.3,9.4-33.3,2.3c-2.5-1.9-5.3-3.6-7.6-5.7c-2.4-2.2-3.9-1.5-5.7,0.6
	c-6.5,7.8-12.8,15.7-20,23c-2,2.1-3.1,4.8-2.5,7.3c4,17.6-4.4,30.4-15.6,42.5c-20.4,22.2-39.4,45.5-58.9,68.5
	c-23.6,27.8-47.5,55.3-70.7,83.4c-28.9,34.9-58.7,69-88.7,102.9c-12.9,14.6-24.6,30.3-38.4,44c-3.9,3.9-8.2,6.4-13.8,5.6
	c-8.6-1.3-14.2,2.9-18.9,9.3c-8.3,11.5-18.5,21.4-27.2,32.6c-8.9,11.5-21.7,16.1-34.9,20c-7,2.1-14,4.2-20.7,7.4
	c-9.5,4.6-15.5,12.9-22.1,20.6c-18.3,21.3-36.8,42.5-55.1,63.9c-11,12.9-22.4,25.6-32.6,39.1c-10.3,13.6-24.2,20.3-40.1,24.5
	c-7.9,2-15.8,4.2-23.7,6.2c-3.4,0.8-6,2.7-8.1,5.4c-20.6,25.2-45,46.8-67.9,69.7c-9.8,9.8-20.3,18.8-29,29.6
	c-3.6,4.5-6.5,9.7-9.7,14.5c-1.2,1.8-0.7,3.9-0.5,5.9c2.8,32.3-6.3,61.7-22.1,89.3c-10.2,17.7-25.2,31.2-41.6,43.2
	c-27.8,20.4-59.4,31.7-92.8,39c-14.3,3.1-28.7,3.6-43.1,4.5C256.6,1192.9,247.2,1192.4,237.9,1192.4L237.9,1192.4L237.9,1192.4z
	 M342.8,1127.7c-0.2-0.2-0.4-0.3-0.5-0.5c6.9-6.3,13.6-12.7,20.5-18.9c32.3-28.9,51.2-65,58.4-107.5c0.6-3.7,0.3-6.7-3.4-8.9
	c-4.4-2.6-7.5-6.7-10.2-10.8c-3-4.6-7-5.7-12-5.3c-41.9,2.7-72.3,28-83.2,68.5c-4.6,16.9-5.1,34.5-9.7,51.4
	c-6.3,23.1-15.9,44.4-31.5,62.7c-2.5,2.9-5,5.8-7.6,8.7c1.2,0,2.6,0.1,4.1,0c28.7-1.8,56.9-5.7,83.4-18
	c24.4-11.3,47.3-24.7,63.8-46.6c18.4-24.3,27.1-51.9,26.4-82.4c-0.1-3.8-0.2-7.8-2.4-11.4c-1.7,1.3-1.4,3-1.7,4.3
	c-3.6,19.3-10,37.6-19.6,54.7C400.9,1097.7,377.1,1119.3,342.8,1127.7L342.8,1127.7L342.8,1127.7z M976.9,87.8
	c10.8,0.4,21.7,0.7,31.6,5.9c32.6,17.3,36.9,59.2,19.1,84.2c-4.8,6.7-10.2,12.7-15.4,19c-29.9,36.2-60.8,71.5-91.4,107.2
	c-14.3,16.7-28.4,33.6-42.7,50.3c-19.2,22.4-38.6,44.6-57.8,67c-17,19.9-33.8,39.9-50.7,59.9c-14.1,16.6-28.2,33.2-42.4,49.7
	c-2.2,2.5-1.5,3.9,0.5,5.7c22.7,19.9,45.4,39.7,68,59.6c18,15.9,35.9,31.8,53.7,47.9c4.8,4.3,6.2,4.5,10.4-0.3
	c13.3-15.5,26.4-31.2,40-46.4c13.9-15.6,27.4-31.6,41.1-47.3c11.2-12.9,22.1-26,33-39.1c16.9-20.3,34.3-40.2,50.8-60.9
	c2.9-3.7,2.7-6.1-0.7-9.2c-12.6-11.4-25-23-38-34c-2.2-1.8-3.1-1.2-4.7,0.6c-22.7,26.4-45.5,52.7-68.1,79.1
	c-26.2,30.6-52.3,61.4-78.4,92.1c-1.7,2-3.6,4-6.1,5.1c-2.2,1-4.6,1.5-6.5-0.3c-1.9-1.8-2-4-1-6.4c1.4-3.5,3.7-6.3,6.1-9.1
	c19.1-22.5,38.2-44.9,57.4-67.3c39.4-46,78.9-92.1,118.4-138.1c16.8-19.6,33.6-39.2,50.4-58.8c2-2.3,4.1-4.3,7.4-4.5
	c3.9-0.2,6,1.9,5.4,5.7c-0.5,3.2-2.2,5.9-4.3,8.3c-15.1,17.5-30.2,35.1-45.4,52.6c-7,8.1-14.1,16-21,24.1c-2.1,2.5-4,4.8-0.4,8
	c11.8,10.3,23.3,20.9,34.9,31.4c7,6.3,7.1,6.2,12.9-0.6c0.7-0.8,1.4-1.5,2-2.2c23.8-27.5,47.6-54.9,71.2-82.5
	c9.2-10.8,8.8-11.8-1.2-22.3c-9.4-9.9-19.9-18.8-28.4-29.4c-6.1-7.5-6.3-14.3-0.2-21.8c8.8-10.8,18.1-21.2,27.2-31.8
	c10.2-11.9,20.3-23.8,30.4-35.8c2.9-3.4,3.1-6.7-0.2-10.1c-3.7-3.8-7.1-8-10.8-11.8c-21.6-21.7-43.5-43.2-65-65
	c-15.2-15.4-32.8-27.2-53-34.9c-16.8-6.5-33.6-5.6-50,2c-1.4,0.7-3.8,1-3.3,3.1c0.5,2.5,3,1.4,4.7,1.5
	C969.9,87.8,973.4,87.8,976.9,87.8L976.9,87.8L976.9,87.8z M731.6,677.3c0.1-1.6-0.9-2.3-1.8-3c-15.5-13.3-31.2-26.5-46.2-40.6
	c-1.8-1.7-3-1.9-4.8,0.3c-19.5,25.3-41.2,48.8-61.8,73.3c-25.9,30.9-52,61.6-78,92.4c-12.9,15.3-25.6,30.7-38.5,45.9
	c-2.6,3-2.7,5.2,0.1,8.5c12.2,13.7,27,24.2,40.9,35.9c3.8,3.2,6.5,2.8,9.8-1.1c36.7-43.3,73.5-86.5,110.5-129.6
	c22.2-25.9,43.8-52.4,66.7-77.7C729.8,680.2,731.3,679,731.6,677.3L731.6,677.3L731.6,677.3z M452.3,989.2c0.6-0.5,1.4-1.1,2.1-1.8
	c2-2,3.9-4.1,5.9-6.1c23.3-23,46.6-46.1,70.1-69c3.1-3,3.4-4.6-0.3-7.5c-14.4-11.1-28.5-22.4-40.8-35.9c-2.8-3-4.1-3.5-6.6,0.4
	c-9.7,14.9-19.8,29.5-29.8,44.3c-10.4,15.4-21.1,30.7-30.9,46.5c-1.2,1.9-1.9,3.3-0.2,5.3c7.7,8.8,15.8,17.1,26.6,22.2
	C449.5,988.2,450.8,988.6,452.3,989.2L452.3,989.2L452.3,989.2z M696.3,616.9c0.8-7.7,2.8-14.8,7.1-21.1c6.5-9.5,13-18.9,21.1-27.2
	c1.6-1.6,3.8-3.2,2.6-6c-2-4.4-8.5-5.3-11.6-1.6c-8.6,10.4-17,20.9-25.5,31.4c-7.1,8.7-7.3,11.3,0.1,21.1c1.2,1.6,2.7,3,4.2,4.3
	c18,15.6,36,31.2,53.9,46.8c7.9,6.8,17,7,24.5-0.3c10.2-10.1,18.2-22.1,27.5-32.9c2.3-2.7,1.2-4.8-1.5-5.9c-2.6-1.1-4.3-6.6-8.4-1.7
	c-8.3,10-17.8,18.9-27.5,27.6c-2.1,1.9-4.3,3.7-6.9,4.8c-0.8,0.4-1.8,1.2-2.8,0.4c-1-0.8-0.2-1.9,0.1-2.8c1.5-5,4.5-9.2,7.5-13.4
	c6-8.4,12.2-16.7,19.2-24.3c2.5-2.7,3-5.1-0.6-7.7c-3.9-2.8-7.5-6.1-10.9-9.5c-3-3-5.1-2.7-7.7,0.3c-6.8,7.8-13.7,15.5-20.6,23.1
	c-4.6,5.1-9.9,9.4-15.8,12.9c-0.7,0.4-1.6,1.6-2.5,0.5c-0.3-0.4,0.1-1.5,0.3-2.3c1.8-5.7,5-10.5,8.6-15.1c6.8-8.8,14-17.4,22.2-25
	c3.1-2.9,3.3-5.4-0.1-8.2c-3.9-3.3-7.7-6.9-11.3-10.5c-3.2-3.2-6.2-2.7-9.1,0.2c-1.4,1.4-2.7,3-4,4.5
	C718.1,592.2,706,603.4,696.3,616.9L696.3,616.9L696.3,616.9z M828.9,653.3c-0.3-0.8-0.4-1.5-0.9-2c-3.3-3.1-6.6-6.1-10-9
	c-1.8-1.6-2.6,0.2-3.4,1.4c-7.1,10.5-16.2,19.5-23.7,29.6c-10,13.4-23,19.8-39.5,19c-3.8-0.2-6.8,1.1-9.2,4
	c-5.5,6.3-11.1,12.4-16.5,18.8c-23.1,27.2-46.1,54.5-69.2,81.8c-11.8,14-23.8,27.9-35.7,41.8c-6.4,7.4-13,14.7-19.5,22.1
	c-0.7,0.8-1.8,1.7-1.5,3c0.2,0.9,1.1,0.7,1.6,0.5c7.3-1.7,14.7-3.2,19.9-9.3c14-16.3,28.1-32.5,42-48.8
	c20.2-23.7,40.4-47.4,60.5-71.2c8.8-10.4,19.4-18,32.7-21.7c7.4-2,14.6-4.6,21.9-6.8c6.6-2,12.3-5.7,16.6-10.6
	c11-12.7,21.2-26,31.8-39.1C827.6,655.6,828.2,654.4,828.9,653.3L828.9,653.3L828.9,653.3z M1245.3,93.2
	c0.3-10.9-4.9-19.5-12.5-26.2c-16.6-14.6-32.5-30.1-51.4-41.8c-6.5-4-13.3-5-20.6-3c-1.2,0.3-3,0-3.2,1.7c-0.1,1.3,1.5,1.6,2.4,2.3
	c4,2.8,7.7,5.8,11.1,9.3c2.6,2.8,3.7,6.4,0.9,9.5c-2.7,3-5.8,1.3-8.5-0.6c-4.1-2.8-8.2-5.7-12.3-8.5c-0.9-0.6-1.9-2.1-2.9-1.1
	c-0.7,0.6-0.7,2.2-0.6,3.2c0.8,8,4.3,14.8,10.2,20c16.2,14.3,32.6,28.4,48.8,42.7c6.6,5.8,13.9,10.3,22.8,11.6
	c2.1,0.3,5,1.4,6.1-0.4c1.2-1.9-1.5-3.7-2.7-5.3c-1-1.3-2.2-2.5-3.3-3.7c-9.6-9.5-19.1-19-28.7-28.5c-2.8-2.8-4.1-6.3-1.3-9.3
	c2.7-2.9,6.2-1.2,9,0.9c0.4,0.3,0.8,0.6,1.2,0.9c9.9,10.1,21.2,18.7,30.8,29.2c1.1,1.2,2.2,3.4,3.7,3c2-0.7,0.9-3.2,1.1-4.9
	C1245.3,93.8,1245.3,93.5,1245.3,93.2L1245.3,93.2L1245.3,93.2z M1187.5,107.9c-0.1-1.5-1-2-1.8-2.6c-7.9-6.8-16-13.5-23.8-20.6
	c-2.5-2.3-3.7-1.5-5.5,0.6c-13,15.3-26,30.7-39.1,45.9c-2.3,2.6-2.2,4.8,0,7.4c6.4,7.9,14,14.7,21.1,21.9c1.3,1.4,2.2,1.4,3.6-0.2
	c14.5-16.7,29.2-33.3,43.7-49.9C1186.5,109.7,1187.1,108.6,1187.5,107.9L1187.5,107.9L1187.5,107.9z M1104.4,281.9
	c-0.1,1.9,1.1,3.3,2.1,4.8c4.3,6.3,10.9,10.3,15.8,15.9c2.7,3.1,4.1,2.4,6.4-0.4c8.4-9.9,16.1-20.3,25.2-29.6
	c2.4-2.4,1.9-4.1-0.4-6.1c-6-5.3-12-10.6-17.8-16c-2.8-2.6-4.9-2.5-7.4,0.5c-7.2,8.7-14.6,17.2-21.9,25.9
	C1105.2,278.3,1104.2,279.8,1104.4,281.9L1104.4,281.9z M1200.4,272.7c-0.6-3.8-2.4-7.3-5.4-9.7c-11.6-9.7-22-20.8-33.3-30.8
	c-10-8.9-10-8.8-18.7,1.2c-2.3,2.6-2.6,4.1,0.4,6.6c10.2,8.5,20.1,17.3,30.1,26.1c4.6,4,9.1,8.2,13.8,12.2c2.4,2,5.3,3.2,8.3,1.5
	C1198.3,278.5,1200.4,276.3,1200.4,272.7L1200.4,272.7L1200.4,272.7z"/>
<path class="st1" d="M976.9,87.8c-3.5,0-7,0.1-10.5,0c-1.7-0.1-4.1,1-4.7-1.5c-0.5-2.1,1.9-2.4,3.3-3.1c16.4-7.6,33.1-8.4,50-2
	c20.2,7.7,37.7,19.5,53,34.9c21.6,21.8,43.4,43.3,65,65c3.8,3.8,7.1,8,10.8,11.8c3.3,3.4,3.1,6.7,0.2,10.1
	c-10.2,11.9-20.3,23.9-30.4,35.8c-9.1,10.6-18.4,21-27.2,31.8c-6,7.5-5.8,14.3,0.2,21.8c8.6,10.6,19.1,19.5,28.4,29.4
	c10,10.5,10.4,11.5,1.2,22.3c-23.6,27.6-47.4,55-71.2,82.5c-0.7,0.8-1.4,1.5-2,2.2c-5.9,6.8-5.9,6.9-12.9,0.6
	c-11.7-10.4-23.2-21-34.9-31.4c-3.6-3.2-1.7-5.5,0.4-8c7-8.1,14.1-16,21-24.1c15.1-17.5,30.2-35.1,45.4-52.6
	c2.1-2.4,3.9-5.1,4.3-8.3c0.6-3.9-1.5-5.9-5.4-5.7c-3.3,0.2-5.5,2.1-7.4,4.5c-16.8,19.6-33.6,39.2-50.4,58.8
	c-39.5,46-78.9,92-118.4,138.1c-19.2,22.4-38.3,44.9-57.4,67.3c-2.4,2.8-4.7,5.6-6.1,9.1c-1,2.4-0.9,4.7,1,6.4
	c2,1.8,4.3,1.3,6.5,0.3c2.5-1.2,4.3-3.1,6.1-5.1c26.1-30.7,52.2-61.5,78.4-92.1c22.6-26.5,45.5-52.7,68.1-79.1
	c1.6-1.9,2.6-2.4,4.7-0.6c13,10.9,25.4,22.5,38,34c3.4,3,3.6,5.5,0.7,9.2c-16.5,20.7-33.8,40.6-50.8,60.9
	c-10.9,13.1-21.9,26.2-33,39.1c-13.7,15.8-27.2,31.8-41.1,47.3c-13.6,15.2-26.7,30.9-40,46.4c-4.2,4.9-5.6,4.7-10.4,0.3
	c-17.8-16.1-35.8-32-53.7-47.9c-22.6-19.9-45.3-39.8-68-59.6c-2-1.8-2.7-3.2-0.5-5.7c14.2-16.5,28.3-33.1,42.4-49.7
	c16.9-19.9,33.7-40,50.7-59.9c19.2-22.4,38.6-44.6,57.8-67c14.3-16.7,28.4-33.6,42.7-50.3c30.6-35.7,61.5-71,91.4-107.2
	c5.2-6.3,10.6-12.3,15.4-19c17.8-25,13.5-66.9-19.1-84.2C998.5,88.5,987.6,88.2,976.9,87.8L976.9,87.8L976.9,87.8z"/>
<path class="st1" d="M731.6,677.3c-0.3,1.7-1.8,2.9-3,4.3c-22.9,25.4-44.5,51.8-66.7,77.7c-37,43.1-73.8,86.3-110.5,129.6
	c-3.3,3.9-6,4.3-9.8,1.1c-13.9-11.7-28.7-22.2-40.9-35.9c-2.9-3.2-2.7-5.4-0.1-8.5c12.9-15.3,25.7-30.6,38.5-45.9
	c26-30.8,52-61.5,78-92.4c20.5-24.5,42.3-48,61.8-73.3c1.7-2.2,3-2,4.8-0.3c14.9,14.1,30.6,27.2,46.2,40.6
	C730.7,675,731.6,675.8,731.6,677.3L731.6,677.3L731.6,677.3z"/>
<path class="st1" d="M342.9,1127.7c34.2-8.3,58-30,74.8-59.9c9.5-17.1,15.9-35.4,19.6-54.7c0.3-1.4,0-3,1.7-4.3
	c2.2,3.6,2.4,7.6,2.4,11.4c0.7,30.5-8,58.1-26.4,82.4c-16.6,21.9-39.4,35.3-63.8,46.6c-26.5,12.2-54.7,16.2-83.4,18
	c-1.5,0.1-2.9,0-4.1,0c2.5-2.9,5.1-5.8,7.6-8.7c15.7-18.3,25.2-39.6,31.5-62.7c4.6-16.9,5.2-34.5,9.7-51.4
	c10.9-40.5,41.4-65.8,83.2-68.5c5-0.3,9,0.7,12,5.3c2.7,4.2,5.8,8.3,10.2,10.8c3.7,2.2,4.1,5.2,3.4,8.9
	c-7.2,42.5-26.1,78.6-58.4,107.5c-6.9,6.2-13.7,12.6-20.5,18.9c-0.2,0.3-0.4,0.6-0.6,0.9L342.9,1127.7L342.9,1127.7z"/>
<path class="st1" d="M452.3,989.2c-1.5-0.6-2.8-1-4-1.6c-10.8-5.1-18.9-13.4-26.6-22.2c-1.7-1.9-1-3.3,0.2-5.3
	c9.8-15.9,20.5-31.1,30.9-46.5c10-14.8,20-29.4,29.8-44.3c2.5-3.8,3.8-3.4,6.6-0.4c12.3,13.5,26.4,24.8,40.8,35.9
	c3.7,2.9,3.4,4.4,0.3,7.5c-23.4,22.9-46.7,46-70.1,69c-2,2-3.9,4.1-5.9,6.1C453.7,988.1,452.9,988.7,452.3,989.2L452.3,989.2
	L452.3,989.2z"/>
<path class="st1" d="M696.3,616.9c9.7-13.5,21.8-24.7,32.2-37.5c1.3-1.5,2.5-3.1,4-4.5c2.9-2.9,5.9-3.4,9.1-0.2
	c3.7,3.6,7.4,7.2,11.3,10.5c3.4,2.9,3.2,5.4,0.1,8.2c-8.2,7.6-15.4,16.2-22.2,25c-3.6,4.6-6.8,9.4-8.6,15.1
	c-0.2,0.8-0.6,1.9-0.3,2.3c0.9,1.1,1.8-0.1,2.5-0.5c5.9-3.5,11.2-7.8,15.8-12.9c7-7.6,13.9-15.3,20.6-23.1c2.7-3.1,4.8-3.3,7.7-0.3
	c3.4,3.4,7,6.7,10.9,9.5c3.6,2.6,3.1,5,0.6,7.7c-7,7.6-13.1,15.9-19.2,24.3c-3,4.2-6,8.4-7.5,13.4c-0.3,0.9-1.1,1.9-0.1,2.8
	c0.9,0.8,1.9-0.1,2.8-0.4c2.6-1.1,4.8-2.9,6.9-4.8c9.6-8.7,19.1-17.6,27.5-27.6c4.1-4.9,5.8,0.6,8.4,1.7c2.7,1.1,3.8,3.2,1.5,5.9
	c-9.4,10.8-17.3,22.8-27.5,32.9c-7.4,7.3-16.6,7.1-24.5,0.3c-18-15.6-36-31.2-53.9-46.8c-1.5-1.3-3-2.7-4.2-4.3
	c-7.5-9.8-7.2-12.4-0.1-21.1c8.5-10.5,17-21,25.5-31.4c3.1-3.7,9.6-2.8,11.6,1.6c1.2,2.7-1,4.3-2.6,6c-8.1,8.2-14.6,17.7-21.1,27.2
	C699.1,602,697.2,609.2,696.3,616.9L696.3,616.9L696.3,616.9z"/>
<path class="st1" d="M828.9,653.3c-0.7,1.1-1.3,2.3-2.1,3.3c-10.5,13.1-20.8,26.4-31.8,39.1c-4.3,4.9-10,8.7-16.6,10.6
	c-7.3,2.2-14.5,4.8-21.9,6.8c-13.3,3.7-23.9,11.3-32.7,21.7c-20.1,23.7-40.3,47.5-60.5,71.2c-14,16.3-28.1,32.5-42,48.8
	c-5.3,6.1-12.7,7.5-19.9,9.3c-0.5,0.1-1.4,0.3-1.6-0.5c-0.3-1.3,0.8-2.1,1.5-3c6.5-7.4,13.1-14.7,19.5-22.1
	c12-13.9,23.9-27.8,35.7-41.8c23.1-27.2,46.1-54.5,69.2-81.8c5.4-6.3,11-12.5,16.5-18.8c2.5-2.8,5.4-4.1,9.2-4
	c16.6,0.8,29.6-5.7,39.5-19c7.5-10.1,16.6-19.1,23.7-29.6c0.8-1.2,1.6-3,3.4-1.4c3.4,2.9,6.7,6,10,9
	C828.5,651.7,828.6,652.5,828.9,653.3L828.9,653.3L828.9,653.3z"/>
<path class="st1" d="M1245.3,93.2c0,0.3,0.1,0.7,0,1c-0.3,1.7,0.9,4.2-1.1,4.9c-1.5,0.5-2.6-1.8-3.7-3
	c-9.6-10.5-20.9-19.1-30.8-29.2c-0.3-0.3-0.8-0.7-1.2-0.9c-2.8-2.1-6.2-3.8-9-0.9c-2.8,3-1.5,6.5,1.3,9.3c9.6,9.5,19.1,19,28.7,28.5
	c1.2,1.2,2.4,2.4,3.3,3.7c1.2,1.7,3.9,3.4,2.7,5.3c-1.1,1.7-4,0.7-6.1,0.4c-8.9-1.3-16.2-5.8-22.8-11.6
	c-16.2-14.3-32.7-28.3-48.8-42.7c-5.9-5.2-9.4-12-10.2-20c-0.1-1.1-0.1-2.7,0.6-3.2c1.1-1,2.1,0.5,2.9,1.1c4.1,2.8,8.2,5.7,12.3,8.5
	c2.7,1.9,5.9,3.6,8.5,0.6c2.7-3.1,1.7-6.7-0.9-9.5c-3.3-3.5-7.1-6.5-11.1-9.3c-0.9-0.6-2.5-1-2.4-2.3c0.2-1.7,2.1-1.4,3.2-1.7
	c7.3-2,14.1-1,20.6,3c18.9,11.8,34.8,27.3,51.4,41.8C1240.4,73.7,1245.6,82.3,1245.3,93.2L1245.3,93.2L1245.3,93.2z"/>
<path class="st1" d="M1187.5,107.9c-0.5,0.7-1,1.8-1.8,2.6c-14.6,16.6-29.2,33.2-43.7,49.9c-1.3,1.5-2.2,1.5-3.6,0.2
	c-7.1-7.2-14.7-14-21.1-21.9c-2.2-2.7-2.2-4.8,0-7.4c13.1-15.3,26.1-30.6,39.1-45.9c1.8-2.1,3-2.8,5.5-0.6
	c7.8,7,15.8,13.7,23.8,20.6C1186.5,105.9,1187.5,106.4,1187.5,107.9L1187.5,107.9L1187.5,107.9z"/>
<path class="st1" d="M1104.4,281.9c-0.1-2.1,0.8-3.6,2.1-5c7.3-8.6,14.7-17.2,21.9-25.9c2.5-3,4.5-3.1,7.4-0.5
	c5.8,5.5,11.8,10.7,17.8,16c2.2,2,2.8,3.7,0.4,6.1c-9.1,9.2-16.8,19.7-25.2,29.6c-2.3,2.7-3.7,3.5-6.4,0.4
	c-4.9-5.6-11.4-9.6-15.8-15.9C1105.4,285.2,1104.2,283.8,1104.4,281.9L1104.4,281.9L1104.4,281.9z"/>
<path class="st1" d="M1200.4,272.7c-0.1,3.6-2.1,5.8-4.8,7.2c-3,1.6-5.9,0.5-8.3-1.5c-4.7-4-9.2-8.2-13.8-12.2
	c-10-8.8-19.9-17.6-30.1-26.1c-3-2.5-2.8-4-0.4-6.6c8.7-10,8.7-10.1,18.7-1.2c11.3,10,21.7,21.1,33.3,30.8
	C1198,265.5,1199.8,268.9,1200.4,272.7L1200.4,272.7z"/>
<path class="st0" d="M342.9,1127.7l-1.1,0.4c0.2-0.3,0.4-0.6,0.6-0.9C342.5,1127.4,342.7,1127.5,342.9,1127.7z"/>
</svg>
